<mxfile host="65bd71144e">
    <diagram id="jq6mjjv2Cj9nycHPsB-u" name="Page-1">
        <mxGraphModel dx="1196" dy="936" grid="1" gridSize="10" guides="1" tooltips="1" connect="1" arrows="1" fold="1" page="1" pageScale="1" pageWidth="850" pageHeight="1100" background="#DAD2D8" math="0" shadow="0">
            <root>
                <mxCell id="0"/>
                <mxCell id="1" parent="0"/>
                <mxCell id="5" style="edgeStyle=orthogonalEdgeStyle;rounded=1;orthogonalLoop=1;jettySize=auto;html=1;entryX=0;entryY=0.5;entryDx=0;entryDy=0;labelBackgroundColor=#DAD2D8;strokeColor=#A8201A;fontColor=#143642;" parent="1" source="2" target="3" edge="1">
                    <mxGeometry relative="1" as="geometry"/>
                </mxCell>
                <mxCell id="2" value="intent.json" style="shape=datastore;whiteSpace=wrap;html=1;fillColor=#FAE5C7;strokeColor=#0F8B8D;fontColor=#143642;" parent="1" vertex="1">
                    <mxGeometry x="110" y="190" width="100" height="100" as="geometry"/>
                </mxCell>
                <mxCell id="6" style="edgeStyle=orthogonalEdgeStyle;rounded=1;orthogonalLoop=1;jettySize=auto;html=1;entryX=0;entryY=0.5;entryDx=0;entryDy=0;entryPerimeter=0;labelBackgroundColor=#DAD2D8;strokeColor=#A8201A;fontColor=#143642;" parent="1" source="3" target="4" edge="1">
                    <mxGeometry relative="1" as="geometry"/>
                </mxCell>
                <mxCell id="21" value="Creation" style="edgeLabel;html=1;align=center;verticalAlign=middle;resizable=0;points=[];fontSize=8;labelBackgroundColor=#DAD2D8;fontColor=#143642;" parent="6" vertex="1" connectable="0">
                    <mxGeometry x="-0.1665" y="4" relative="1" as="geometry">
                        <mxPoint x="10" y="4" as="offset"/>
                    </mxGeometry>
                </mxCell>
                <mxCell id="3" value="Model.py" style="rounded=0;whiteSpace=wrap;html=1;fillColor=#FAE5C7;strokeColor=#0F8B8D;fontColor=#143642;" parent="1" vertex="1">
                    <mxGeometry x="290" y="210" width="120" height="60" as="geometry"/>
                </mxCell>
                <mxCell id="7" value="&lt;b&gt;&lt;font style=&quot;font-size: 10px&quot;&gt;Json format dataset&lt;/font&gt;&lt;/b&gt;" style="text;html=1;strokeColor=none;fillColor=none;align=center;verticalAlign=middle;whiteSpace=wrap;rounded=0;fontSize=8;fontColor=#143642;" parent="1" vertex="1">
                    <mxGeometry x="100" y="274" width="120" height="60" as="geometry"/>
                </mxCell>
                <mxCell id="8" value="&lt;i&gt;Network that can learn from intent.json and generate a model object&lt;/i&gt;" style="text;html=1;strokeColor=none;fillColor=none;align=center;verticalAlign=middle;whiteSpace=wrap;rounded=0;fontSize=8;fontColor=#143642;" parent="1" vertex="1">
                    <mxGeometry x="300" y="295" width="100" height="20" as="geometry"/>
                </mxCell>
                <mxCell id="11" value="&lt;font style=&quot;font-size: 10px&quot;&gt;Traning model&lt;/font&gt;" style="text;html=1;strokeColor=none;fillColor=none;align=center;verticalAlign=middle;whiteSpace=wrap;rounded=0;fontSize=8;fontStyle=1;fontColor=#143642;" parent="1" vertex="1">
                    <mxGeometry x="300" y="273" width="100" height="20" as="geometry"/>
                </mxCell>
                <mxCell id="12" value="&lt;i&gt;that contains Chat conversation like What is java? and it's possible answers etc.&lt;/i&gt;" style="text;html=1;strokeColor=none;fillColor=none;align=center;verticalAlign=middle;whiteSpace=wrap;rounded=0;fontSize=8;fontColor=#143642;" parent="1" vertex="1">
                    <mxGeometry x="96" y="316" width="130" height="20" as="geometry"/>
                </mxCell>
                <mxCell id="17" style="edgeStyle=orthogonalEdgeStyle;rounded=1;orthogonalLoop=1;jettySize=auto;html=1;entryX=0;entryY=0.833;entryDx=0;entryDy=0;entryPerimeter=0;fontSize=8;labelBackgroundColor=#DAD2D8;strokeColor=#A8201A;fontColor=#143642;" parent="1" source="14" target="4" edge="1">
                    <mxGeometry relative="1" as="geometry">
                        <Array as="points">
                            <mxPoint x="450" y="460"/>
                            <mxPoint x="450" y="260"/>
                        </Array>
                    </mxGeometry>
                </mxCell>
                <mxCell id="22" value="Processed data" style="edgeLabel;html=1;align=center;verticalAlign=middle;resizable=0;points=[];fontSize=8;labelBackgroundColor=#DAD2D8;fontColor=#143642;" parent="17" vertex="1" connectable="0">
                    <mxGeometry x="-0.1532" y="1" relative="1" as="geometry">
                        <mxPoint as="offset"/>
                    </mxGeometry>
                </mxCell>
                <mxCell id="29" style="edgeStyle=orthogonalEdgeStyle;rounded=0;orthogonalLoop=1;jettySize=auto;html=1;entryX=1;entryY=0.5;entryDx=0;entryDy=0;entryPerimeter=0;fontSize=8;labelBackgroundColor=#DAD2D8;strokeColor=#A8201A;fontColor=#143642;" parent="1" source="14" target="27" edge="1">
                    <mxGeometry relative="1" as="geometry"/>
                </mxCell>
                <mxCell id="31" value="Query Response" style="edgeLabel;html=1;align=center;verticalAlign=middle;resizable=0;points=[];fontSize=8;labelBackgroundColor=#DAD2D8;fontColor=#143642;" parent="29" vertex="1" connectable="0">
                    <mxGeometry x="0.1124" relative="1" as="geometry">
                        <mxPoint x="10" as="offset"/>
                    </mxGeometry>
                </mxCell>
                <mxCell id="14" value="&lt;font style=&quot;font-size: 12px&quot;&gt;Main.py&lt;/font&gt;" style="rounded=0;whiteSpace=wrap;html=1;fontSize=8;fillColor=#FAE5C7;strokeColor=#0F8B8D;fontColor=#143642;" parent="1" vertex="1">
                    <mxGeometry x="280" y="440" width="120" height="60" as="geometry"/>
                </mxCell>
                <mxCell id="15" value="&lt;i&gt;Input data preprocessing (steming and other methods) / getting response for the given query&amp;nbsp;&lt;/i&gt;" style="text;html=1;strokeColor=none;fillColor=none;align=center;verticalAlign=middle;whiteSpace=wrap;rounded=0;fontSize=8;fontColor=#143642;" parent="1" vertex="1">
                    <mxGeometry x="290" y="530" width="100" height="52" as="geometry"/>
                </mxCell>
                <mxCell id="16" value="&lt;font style=&quot;font-size: 10px&quot;&gt;Preprocessing and getting response&lt;/font&gt;" style="text;html=1;strokeColor=none;fillColor=none;align=center;verticalAlign=middle;whiteSpace=wrap;rounded=0;fontSize=8;fontStyle=1;fontColor=#143642;" parent="1" vertex="1">
                    <mxGeometry x="290" y="510" width="100" height="20" as="geometry"/>
                </mxCell>
                <mxCell id="20" value="" style="group;fontColor=#143642;" parent="1" vertex="1" connectable="0">
                    <mxGeometry x="530" y="210" width="40" height="95" as="geometry"/>
                </mxCell>
                <mxCell id="4" value="Model" style="shape=mxgraph.bpmn.data;labelPosition=center;verticalLabelPosition=bottom;align=center;verticalAlign=top;whiteSpace=wrap;size=15;html=1;fillColor=#FAE5C7;strokeColor=#0F8B8D;fontColor=#143642;" parent="20" vertex="1">
                    <mxGeometry width="40" height="60" as="geometry"/>
                </mxCell>
                <mxCell id="9" value="&lt;i&gt;(Artifacts)&lt;/i&gt;" style="text;html=1;strokeColor=none;fillColor=none;align=center;verticalAlign=middle;whiteSpace=wrap;rounded=0;fontSize=8;fontColor=#143642;" parent="20" vertex="1">
                    <mxGeometry y="75" width="40" height="20" as="geometry"/>
                </mxCell>
                <mxCell id="23" style="edgeStyle=orthogonalEdgeStyle;rounded=1;orthogonalLoop=1;jettySize=auto;html=1;entryX=1;entryY=0.75;entryDx=0;entryDy=0;fontSize=8;labelBackgroundColor=#DAD2D8;strokeColor=#A8201A;fontColor=#143642;" parent="1" source="4" target="14" edge="1">
                    <mxGeometry relative="1" as="geometry">
                        <Array as="points">
                            <mxPoint x="600" y="240"/>
                            <mxPoint x="600" y="485"/>
                        </Array>
                    </mxGeometry>
                </mxCell>
                <mxCell id="24" value="Query Response&amp;nbsp;" style="edgeLabel;html=1;align=center;verticalAlign=middle;resizable=0;points=[];fontSize=8;labelBackgroundColor=#DAD2D8;fontColor=#143642;" parent="23" vertex="1" connectable="0">
                    <mxGeometry x="-0.2426" y="2" relative="1" as="geometry">
                        <mxPoint x="-52" y="95" as="offset"/>
                    </mxGeometry>
                </mxCell>
                <mxCell id="28" style="edgeStyle=orthogonalEdgeStyle;rounded=1;orthogonalLoop=1;jettySize=auto;html=1;entryX=0.314;entryY=-0.017;entryDx=0;entryDy=0;entryPerimeter=0;fontSize=8;labelBackgroundColor=#DAD2D8;strokeColor=#A8201A;fontColor=#143642;" parent="1" source="27" target="14" edge="1">
                    <mxGeometry relative="1" as="geometry">
                        <Array as="points">
                            <mxPoint x="130" y="410"/>
                            <mxPoint x="318" y="410"/>
                        </Array>
                    </mxGeometry>
                </mxCell>
                <mxCell id="30" value="Query" style="edgeLabel;html=1;align=center;verticalAlign=middle;resizable=0;points=[];fontSize=8;labelBackgroundColor=#DAD2D8;fontColor=#143642;" parent="28" vertex="1" connectable="0">
                    <mxGeometry x="-0.06" relative="1" as="geometry">
                        <mxPoint as="offset"/>
                    </mxGeometry>
                </mxCell>
                <mxCell id="66" style="edgeStyle=orthogonalEdgeStyle;rounded=1;orthogonalLoop=1;jettySize=auto;html=1;entryX=0.5;entryY=1;entryDx=0;entryDy=0;labelBackgroundColor=#DAD2D8;strokeColor=#A8201A;fontColor=#143642;" edge="1" parent="1" source="27" target="43">
                    <mxGeometry relative="1" as="geometry">
                        <Array as="points">
                            <mxPoint x="40" y="470"/>
                            <mxPoint x="40" y="650"/>
                            <mxPoint x="710" y="650"/>
                        </Array>
                    </mxGeometry>
                </mxCell>
                <mxCell id="67" value="response" style="edgeLabel;html=1;align=center;verticalAlign=middle;resizable=0;points=[];labelBackgroundColor=#DAD2D8;fontColor=#143642;" vertex="1" connectable="0" parent="66">
                    <mxGeometry x="0.3082" y="-1" relative="1" as="geometry">
                        <mxPoint as="offset"/>
                    </mxGeometry>
                </mxCell>
                <mxCell id="27" value="&lt;font style=&quot;font-size: 12px&quot;&gt;Chat DB&lt;/font&gt;" style="strokeWidth=2;html=1;shape=mxgraph.flowchart.database;whiteSpace=wrap;fontSize=8;fillColor=#FAE5C7;strokeColor=#0F8B8D;fontColor=#143642;" parent="1" vertex="1">
                    <mxGeometry x="90" y="440" width="60" height="60" as="geometry"/>
                </mxCell>
                <mxCell id="33" value="&lt;i&gt;Temporary chat database which will store session's conversation&lt;/i&gt;" style="text;html=1;strokeColor=none;fillColor=none;align=center;verticalAlign=middle;whiteSpace=wrap;rounded=0;fontSize=8;fontColor=#143642;" parent="1" vertex="1">
                    <mxGeometry x="80" y="490" width="100" height="52" as="geometry"/>
                </mxCell>
                <mxCell id="34" value="/init" style="ellipse;whiteSpace=wrap;html=1;fontSize=8;fillColor=#FAE5C7;strokeColor=#0F8B8D;fontColor=#143642;" parent="1" vertex="1">
                    <mxGeometry x="910" y="220" width="54" height="30" as="geometry"/>
                </mxCell>
                <mxCell id="40" value="" style="group;fontColor=#143642;" parent="1" vertex="1" connectable="0">
                    <mxGeometry x="1100" y="275" width="120" height="102" as="geometry"/>
                </mxCell>
                <mxCell id="26" value="&lt;font style=&quot;font-size: 12px&quot;&gt;Server.py&lt;/font&gt;" style="rounded=0;whiteSpace=wrap;html=1;fontSize=8;fillColor=#FAE5C7;strokeColor=#0F8B8D;fontColor=#143642;" parent="40" vertex="1">
                    <mxGeometry width="120" height="60" as="geometry"/>
                </mxCell>
                <mxCell id="38" value="&lt;i&gt;Server.py provide 2 api with different functionality&lt;br&gt;&lt;/i&gt;" style="text;html=1;strokeColor=none;fillColor=none;align=center;verticalAlign=middle;whiteSpace=wrap;rounded=0;fontSize=8;fontColor=#143642;" parent="40" vertex="1">
                    <mxGeometry x="10" y="50" width="100" height="52" as="geometry"/>
                </mxCell>
                <mxCell id="41" style="edgeStyle=orthogonalEdgeStyle;rounded=1;orthogonalLoop=1;jettySize=auto;html=1;entryX=1;entryY=0.5;entryDx=0;entryDy=0;fontSize=8;labelBackgroundColor=#DAD2D8;strokeColor=#A8201A;fontColor=#143642;" parent="1" source="26" target="34" edge="1">
                    <mxGeometry relative="1" as="geometry"/>
                </mxCell>
                <mxCell id="42" style="edgeStyle=orthogonalEdgeStyle;rounded=1;orthogonalLoop=1;jettySize=auto;html=1;entryX=1;entryY=0.5;entryDx=0;entryDy=0;fontSize=8;labelBackgroundColor=#DAD2D8;strokeColor=#A8201A;fontColor=#143642;" parent="1" source="26" target="35" edge="1">
                    <mxGeometry relative="1" as="geometry"/>
                </mxCell>
                <mxCell id="60" style="edgeStyle=orthogonalEdgeStyle;rounded=1;orthogonalLoop=1;jettySize=auto;html=1;entryX=0;entryY=0.333;entryDx=0;entryDy=0;entryPerimeter=0;fontSize=8;labelBackgroundColor=#DAD2D8;strokeColor=#A8201A;fontColor=#143642;" parent="1" source="43" target="35" edge="1">
                    <mxGeometry relative="1" as="geometry"/>
                </mxCell>
                <mxCell id="61" value="Query" style="edgeLabel;html=1;align=center;verticalAlign=middle;resizable=0;points=[];fontSize=8;labelBackgroundColor=#DAD2D8;fontColor=#143642;" parent="60" vertex="1" connectable="0">
                    <mxGeometry x="-0.1269" y="2" relative="1" as="geometry">
                        <mxPoint y="-9" as="offset"/>
                    </mxGeometry>
                </mxCell>
                <mxCell id="47" value="Frontend" style="text;html=1;strokeColor=none;fillColor=none;align=center;verticalAlign=middle;whiteSpace=wrap;rounded=0;fontSize=8;fontColor=#143642;" parent="1" vertex="1">
                    <mxGeometry x="690" y="390" width="40" height="20" as="geometry"/>
                </mxCell>
                <mxCell id="49" value="" style="endArrow=none;dashed=1;html=1;fontSize=8;entryX=0;entryY=0.5;entryDx=0;entryDy=0;exitX=0;exitY=0.15;exitDx=0;exitDy=0;exitPerimeter=0;labelBackgroundColor=#DAD2D8;strokeColor=#A8201A;fontColor=#143642;" parent="1" source="27" target="34" edge="1">
                    <mxGeometry width="50" height="50" relative="1" as="geometry">
                        <mxPoint x="220" y="630" as="sourcePoint"/>
                        <mxPoint x="270" y="580" as="targetPoint"/>
                        <Array as="points">
                            <mxPoint x="90" y="360"/>
                            <mxPoint x="90" y="170"/>
                            <mxPoint x="500" y="170"/>
                            <mxPoint x="850" y="170"/>
                            <mxPoint x="850" y="235"/>
                        </Array>
                    </mxGeometry>
                </mxCell>
                <mxCell id="50" value="Initialise chatDB" style="text;html=1;align=center;verticalAlign=middle;resizable=0;points=[];autosize=1;strokeColor=none;fontSize=8;fontColor=#143642;" parent="1" vertex="1">
                    <mxGeometry x="440" y="150" width="70" height="20" as="geometry"/>
                </mxCell>
                <mxCell id="53" value="&lt;span&gt;create chatDB and return index.html&lt;/span&gt;" style="text;html=1;strokeColor=none;fillColor=none;align=center;verticalAlign=middle;whiteSpace=wrap;rounded=0;fontSize=8;fontStyle=2;fontColor=#143642;" parent="1" vertex="1">
                    <mxGeometry x="300" y="600" width="67" height="40" as="geometry"/>
                </mxCell>
                <mxCell id="59" style="edgeStyle=orthogonalEdgeStyle;rounded=1;orthogonalLoop=1;jettySize=auto;html=1;entryX=0;entryY=0.5;entryDx=0;entryDy=0;entryPerimeter=0;fontSize=8;labelBackgroundColor=#DAD2D8;strokeColor=#A8201A;fontColor=#143642;" parent="1" source="35" target="27" edge="1">
                    <mxGeometry relative="1" as="geometry">
                        <Array as="points">
                            <mxPoint x="937" y="320"/>
                            <mxPoint x="620" y="320"/>
                            <mxPoint x="620" y="600"/>
                            <mxPoint x="70" y="600"/>
                            <mxPoint x="70" y="470"/>
                        </Array>
                    </mxGeometry>
                </mxCell>
                <mxCell id="35" value="/chat" style="ellipse;whiteSpace=wrap;html=1;fontSize=8;fillColor=#FAE5C7;strokeColor=#0F8B8D;fontColor=#143642;" parent="1" vertex="1">
                    <mxGeometry x="910" y="360" width="54" height="30" as="geometry"/>
                </mxCell>
                <mxCell id="64" value="" style="group;fontColor=#143642;" vertex="1" connectable="0" parent="1">
                    <mxGeometry x="650" y="420" width="120" height="150" as="geometry"/>
                </mxCell>
                <mxCell id="43" value="" style="rounded=0;whiteSpace=wrap;html=1;fontSize=8;fillColor=#FAE5C7;strokeColor=#0F8B8D;fontColor=#143642;" parent="64" vertex="1">
                    <mxGeometry width="120" height="150" as="geometry"/>
                </mxCell>
                <mxCell id="44" value="index.html" style="ellipse;whiteSpace=wrap;html=1;fontSize=8;fillColor=#FAE5C7;strokeColor=#0F8B8D;fontColor=#143642;" parent="64" vertex="1">
                    <mxGeometry x="30" y="19" width="55.8" height="31" as="geometry"/>
                </mxCell>
                <mxCell id="45" value="style.css" style="ellipse;whiteSpace=wrap;html=1;fontSize=8;fillColor=#FAE5C7;strokeColor=#0F8B8D;fontColor=#143642;" parent="64" vertex="1">
                    <mxGeometry x="31.799999999999997" y="60" width="54" height="30" as="geometry"/>
                </mxCell>
                <mxCell id="46" value="static.js" style="ellipse;whiteSpace=wrap;html=1;fontSize=8;fillColor=#FAE5C7;strokeColor=#0F8B8D;fontColor=#143642;" parent="64" vertex="1">
                    <mxGeometry x="31.80000000000001" y="100" width="54" height="30" as="geometry"/>
                </mxCell>
                <mxCell id="65" value="" style="group;fontColor=#143642;" vertex="1" connectable="0" parent="1">
                    <mxGeometry x="890" y="400" width="103" height="70" as="geometry"/>
                </mxCell>
                <mxCell id="39" value="METHODS: (get,post)" style="text;html=1;strokeColor=none;fillColor=none;align=center;verticalAlign=middle;whiteSpace=wrap;rounded=0;fontSize=8;fontColor=#143642;" parent="65" vertex="1">
                    <mxGeometry width="103" height="20" as="geometry"/>
                </mxCell>
                <mxCell id="54" value="&lt;span&gt;get query from frontend / send query and get responses / return index.html with chatDB&lt;/span&gt;" style="text;html=1;strokeColor=none;fillColor=none;align=center;verticalAlign=middle;whiteSpace=wrap;rounded=0;fontSize=8;fontStyle=2;fontColor=#143642;" parent="65" vertex="1">
                    <mxGeometry x="8" y="10" width="87" height="60" as="geometry"/>
                </mxCell>
            </root>
        </mxGraphModel>
    </diagram>
</mxfile>